M48
; DRILL file {KiCad (5.1.9)-1} date 03/29/21 19:03:11
; FORMAT={-:-/ absolute / inch / decimal}
; #@! TF.CreationDate,2021-03-29T19:03:11-07:00
; #@! TF.GenerationSoftware,Kicad,Pcbnew,(5.1.9)-1
FMAT,2
INCH
T1C0.0118
T2C0.0157
T3C0.0197
T4C0.0276
T5C0.0295
T6C0.0315
T7C0.0354
T8C0.0394
T9C0.0433
T10C0.0472
T11C0.0512
T12C0.1260
%
G90
G05
T1
X4.09Y-2.64
X4.195Y-2.535
X4.28Y-3.23
X4.395Y-2.535
X4.565Y-3.56
X4.695Y-2.535
X4.92Y-2.23
X4.92Y-2.93
X4.95Y-1.7
X4.95Y-1.75
X4.95Y-1.8
X5.0Y-1.7
X5.0Y-1.75
X5.0Y-1.8
X5.0Y-2.225
X5.0Y-2.835
X5.05Y-1.7
X5.05Y-1.75
X5.05Y-1.8
X5.1Y-1.7
X5.1Y-1.75
X5.1Y-1.8
T2
X2.3998Y-3.2198
X2.42Y-2.13
X2.48Y-3.88
X2.49Y-2.71
X3.16Y-3.29
X3.325Y-2.05
X3.325Y-2.1287
X3.325Y-2.2075
X3.4037Y-2.05
X3.4037Y-2.1287
X3.4037Y-2.2075
X3.4825Y-2.05
X3.4825Y-2.1287
X3.4825Y-2.2075
X3.5612Y-2.05
X3.5612Y-2.1287
X3.5612Y-2.2075
X3.64Y-2.05
X3.64Y-2.1287
X3.64Y-2.2075
X4.055Y-2.615
X4.23Y-2.06
X4.47Y-2.4285
X4.47Y-2.9187
X4.55Y-2.4
X4.62Y-1.89
X4.62Y-3.43
X4.73Y-3.12
X4.745Y-3.175
X5.0639Y-2.0861
X5.22Y-2.53
X5.225Y-3.125
X5.225Y-3.2037
X5.225Y-3.2825
X5.25Y-1.69
X5.3037Y-3.125
X5.3037Y-3.2037
X5.3037Y-3.2825
X5.3825Y-3.125
X5.3825Y-3.2037
X5.3825Y-3.2825
T3
X2.1055Y-1.61
X2.1055Y-4.35
X2.1332Y-1.5432
X2.1332Y-1.6768
X2.1332Y-4.2832
X2.1332Y-4.4168
X2.2Y-1.5155
X2.2Y-1.7045
X2.2Y-4.2555
X2.2Y-4.4445
X2.2668Y-1.5432
X2.2668Y-1.6768
X2.2668Y-4.2832
X2.2668Y-4.4168
X2.2945Y-1.61
X2.2945Y-4.35
X5.5687Y-1.5992
X5.5687Y-4.35
X5.5964Y-1.5324
X5.5964Y-1.666
X5.5964Y-4.2832
X5.5964Y-4.4168
X5.6632Y-1.5047
X5.6632Y-1.6937
X5.6632Y-4.2555
X5.6632Y-4.4445
X5.73Y-1.5324
X5.73Y-1.666
X5.73Y-4.2832
X5.73Y-4.4168
X5.7577Y-1.5992
X5.7577Y-4.35
T4
X2.98Y-1.81
X2.98Y-1.93
X2.98Y-2.15
X2.98Y-2.28
X2.98Y-2.41
X2.98Y-2.54
X2.99Y-2.82
X2.99Y-2.94
X2.99Y-3.06
X2.99Y-3.18
X2.99Y-3.39
X2.99Y-3.5067
X2.99Y-3.6233
X2.99Y-3.74
X2.99Y-4.05
X2.99Y-4.17
X3.18Y-1.81
X3.18Y-1.93
X3.18Y-2.15
X3.18Y-2.28
X3.18Y-2.41
X3.18Y-2.54
X3.19Y-2.82
X3.19Y-2.94
X3.19Y-3.06
X3.19Y-3.18
X3.19Y-3.39
X3.19Y-3.5067
X3.19Y-3.6233
X3.19Y-3.74
X3.19Y-4.05
X3.19Y-4.17
X3.53Y-3.295
X3.53Y-3.525
X3.53Y-3.755
X3.73Y-3.295
X3.73Y-3.525
X3.73Y-3.755
X4.78Y-3.31
X4.78Y-3.51
X5.1Y-3.73
X5.3Y-3.73
T5
X4.84Y-3.68
X4.84Y-3.73
X4.84Y-3.78
T6
X2.4Y-1.96
X2.4Y-2.26
X2.4Y-2.5433
X2.4Y-2.8433
X2.4Y-3.1267
X2.4Y-3.4267
X2.4Y-3.71
X2.4Y-4.01
X2.5Y-1.96
X2.5Y-2.26
X2.5Y-2.5433
X2.5Y-2.8433
X2.5Y-3.1267
X2.5Y-3.4267
X2.5Y-3.71
X2.5Y-4.01
X2.6Y-1.96
X2.6Y-2.26
X2.6Y-2.5433
X2.6Y-2.8433
X2.6Y-3.1267
X2.6Y-3.4267
X2.6Y-3.71
X2.6Y-4.01
X2.7Y-1.96
X2.7Y-2.26
X2.7Y-2.5433
X2.7Y-2.8433
X2.7Y-3.1267
X2.7Y-3.4267
X2.7Y-3.71
X2.7Y-4.01
X2.84Y-2.05
X2.84Y-2.1484
X2.84Y-2.64
X2.84Y-2.7384
X2.84Y-3.23
X2.84Y-3.3284
X2.84Y-3.82
X2.84Y-3.9184
X4.29Y-1.9
X4.29Y-2.27
X4.2916Y-1.74
X4.32Y-2.84
X4.3884Y-1.9
X4.3884Y-2.27
X4.39Y-1.74
X4.4184Y-2.84
X5.0463Y-3.41
X5.1448Y-3.41
T7
X3.87Y-3.295
X3.87Y-3.525
X3.87Y-3.755
X3.97Y-3.295
X3.97Y-3.525
X3.97Y-3.755
X4.1363Y-1.73
X4.1363Y-2.03
T8
X2.14Y-1.97
X2.14Y-2.25
X2.14Y-2.55
X2.14Y-2.83
X2.14Y-3.14
X2.14Y-3.42
X2.15Y-3.72
X2.15Y-4.0
X2.24Y-1.97
X2.24Y-2.25
X2.24Y-2.55
X2.24Y-2.83
X2.24Y-3.14
X2.24Y-3.42
X2.25Y-3.72
X2.25Y-4.0
X2.67Y-1.54
X2.77Y-1.54
X3.04Y-1.54
X3.14Y-1.54
X4.77Y-1.5861
X4.77Y-1.6861
X4.77Y-1.7861
X4.77Y-1.8861
X4.77Y-1.9861
X4.77Y-2.0861
X4.77Y-2.1861
X4.77Y-2.2861
X4.77Y-2.3861
X4.77Y-2.4861
X4.77Y-2.5861
X4.77Y-2.6861
X4.77Y-2.7861
X4.77Y-2.8861
X4.77Y-2.9861
X5.17Y-4.351
X5.27Y-4.351
X5.37Y-1.5861
X5.37Y-1.6861
X5.37Y-1.7861
X5.37Y-1.8861
X5.37Y-1.9861
X5.37Y-2.0861
X5.37Y-2.1861
X5.37Y-2.2861
X5.37Y-2.3861
X5.37Y-2.4861
X5.37Y-2.5861
X5.37Y-2.6861
X5.37Y-2.7861
X5.37Y-2.8861
X5.37Y-2.9861
X5.67Y-1.86
X5.67Y-1.96
X5.67Y-2.06
X5.67Y-2.16
X5.67Y-2.26
X5.67Y-2.36
X5.67Y-2.46
X5.67Y-2.56
X5.67Y-2.66
X5.67Y-2.76
X5.67Y-2.86
X5.67Y-2.96
X5.67Y-3.06
T9
X4.18Y-1.594
X4.28Y-1.594
X4.38Y-1.594
X5.607Y-3.52
X5.607Y-3.62
X5.607Y-3.72
T10
X4.5581Y-4.04
X5.44Y-4.04
T11
X3.71Y-2.5995
X3.71Y-2.82
T12
X2.2Y-1.61
X2.2Y-4.35
X5.6632Y-1.5992
X5.6632Y-4.35
T8
G00X3.456Y-1.8763
M15
G01X3.456Y-1.7896
M16
G05
G00X3.6017Y-1.705
M15
G01X3.6883Y-1.705
M16
G05
G00X3.6017Y-1.9511
M15
G01X3.6883Y-1.9511
M16
G05
T0
M30
