G04 #@! TF.GenerationSoftware,KiCad,Pcbnew,(5.1.9)-1*
G04 #@! TF.CreationDate,2021-03-29T19:03:04-07:00*
G04 #@! TF.ProjectId,thermistor_calibrator,74686572-6d69-4737-946f-725f63616c69,rev?*
G04 #@! TF.SameCoordinates,Original*
G04 #@! TF.FileFunction,Soldermask,Bot*
G04 #@! TF.FilePolarity,Negative*
%FSLAX46Y46*%
G04 Gerber Fmt 4.6, Leading zero omitted, Abs format (unit mm)*
G04 Created by KiCad (PCBNEW (5.1.9)-1) date 2021-03-29 19:03:04*
%MOMM*%
%LPD*%
G01*
G04 APERTURE LIST*
%ADD10O,4.200000X1.800000*%
%ADD11O,1.800000X4.200000*%
%ADD12O,1.700000X1.700000*%
%ADD13R,1.700000X1.700000*%
%ADD14C,1.600000*%
%ADD15O,1.600000X1.600000*%
%ADD16R,1.600000X1.600000*%
%ADD17O,1.905000X2.000000*%
%ADD18R,1.905000X2.000000*%
%ADD19O,1.400000X1.400000*%
%ADD20C,1.400000*%
%ADD21O,2.400000X2.400000*%
%ADD22C,2.400000*%
%ADD23O,2.000000X1.905000*%
%ADD24R,2.000000X1.905000*%
%ADD25R,1.500000X1.050000*%
%ADD26O,1.500000X1.050000*%
%ADD27C,2.600000*%
%ADD28C,0.800000*%
%ADD29C,6.400000*%
%ADD30C,1.800000*%
%ADD31R,1.800000X1.800000*%
%ADD32O,1.800000X1.800000*%
G04 APERTURE END LIST*
D10*
G04 #@! TO.C,J1*
X92583000Y-43307000D03*
X92583000Y-49557000D03*
D11*
X87783000Y-46557000D03*
G04 #@! TD*
D12*
G04 #@! TO.C,J10*
X57150000Y-101600000D03*
D13*
X54610000Y-101600000D03*
G04 #@! TD*
D12*
G04 #@! TO.C,J9*
X56896000Y-86868000D03*
D13*
X54356000Y-86868000D03*
G04 #@! TD*
D12*
G04 #@! TO.C,J8*
X57150000Y-94488000D03*
D13*
X54610000Y-94488000D03*
G04 #@! TD*
D12*
G04 #@! TO.C,J7*
X56896000Y-79756000D03*
D13*
X54356000Y-79756000D03*
G04 #@! TD*
D12*
G04 #@! TO.C,J6*
X56896000Y-71882000D03*
D13*
X54356000Y-71882000D03*
G04 #@! TD*
D12*
G04 #@! TO.C,J5*
X56896000Y-57150000D03*
D13*
X54356000Y-57150000D03*
G04 #@! TD*
D12*
G04 #@! TO.C,J4*
X131318000Y-110515000D03*
D13*
X133858000Y-110515000D03*
G04 #@! TD*
D12*
G04 #@! TO.C,J3*
X56896000Y-64770000D03*
D13*
X54356000Y-64770000D03*
G04 #@! TD*
D12*
G04 #@! TO.C,J2*
X56896000Y-50038000D03*
D13*
X54356000Y-50038000D03*
G04 #@! TD*
D14*
G04 #@! TO.C,C9*
X72136000Y-99528000D03*
X72136000Y-97028000D03*
G04 #@! TD*
G04 #@! TO.C,C8*
X72136000Y-84542000D03*
X72136000Y-82042000D03*
G04 #@! TD*
G04 #@! TO.C,C7*
X72136000Y-69556000D03*
X72136000Y-67056000D03*
G04 #@! TD*
G04 #@! TO.C,C6*
X72136000Y-54570000D03*
X72136000Y-52070000D03*
G04 #@! TD*
D15*
G04 #@! TO.C,U5*
X60960000Y-94234000D03*
X68580000Y-101854000D03*
X63500000Y-94234000D03*
X66040000Y-101854000D03*
X66040000Y-94234000D03*
X63500000Y-101854000D03*
X68580000Y-94234000D03*
D16*
X60960000Y-101854000D03*
G04 #@! TD*
D15*
G04 #@! TO.C,U4*
X60960000Y-79417332D03*
X68580000Y-87037332D03*
X63500000Y-79417332D03*
X66040000Y-87037332D03*
X66040000Y-79417332D03*
X63500000Y-87037332D03*
X68580000Y-79417332D03*
D16*
X60960000Y-87037332D03*
G04 #@! TD*
D15*
G04 #@! TO.C,U3*
X60960000Y-64600666D03*
X68580000Y-72220666D03*
X63500000Y-64600666D03*
X66040000Y-72220666D03*
X66040000Y-64600666D03*
X63500000Y-72220666D03*
X68580000Y-64600666D03*
D16*
X60960000Y-72220666D03*
G04 #@! TD*
D15*
G04 #@! TO.C,U2*
X60960000Y-49784000D03*
X68580000Y-57404000D03*
X63500000Y-49784000D03*
X66040000Y-57404000D03*
X66040000Y-49784000D03*
X63500000Y-57404000D03*
X68580000Y-49784000D03*
D16*
X60960000Y-57404000D03*
G04 #@! TD*
D17*
G04 #@! TO.C,U1*
X111252000Y-40488000D03*
X108712000Y-40488000D03*
D18*
X106172000Y-40488000D03*
G04 #@! TD*
D19*
G04 #@! TO.C,R22*
X94742000Y-95377000D03*
D20*
X89662000Y-95377000D03*
G04 #@! TD*
D19*
G04 #@! TO.C,R21*
X94742000Y-89535000D03*
D20*
X89662000Y-89535000D03*
G04 #@! TD*
D19*
G04 #@! TO.C,R20*
X75946000Y-92032666D03*
D20*
X81026000Y-92032666D03*
G04 #@! TD*
D19*
G04 #@! TO.C,R19*
X75946000Y-77724000D03*
D20*
X81026000Y-77724000D03*
G04 #@! TD*
D19*
G04 #@! TO.C,R18*
X94742000Y-83693000D03*
D20*
X89662000Y-83693000D03*
G04 #@! TD*
D19*
G04 #@! TO.C,R17*
X75946000Y-94996000D03*
D20*
X81026000Y-94996000D03*
G04 #@! TD*
D19*
G04 #@! TO.C,R16*
X75946000Y-80772000D03*
D20*
X81026000Y-80772000D03*
G04 #@! TD*
D19*
G04 #@! TO.C,R15*
X75946000Y-105918000D03*
D20*
X81026000Y-105918000D03*
G04 #@! TD*
D19*
G04 #@! TO.C,R14*
X75946000Y-89069333D03*
D20*
X81026000Y-89069333D03*
G04 #@! TD*
D19*
G04 #@! TO.C,R13*
X75946000Y-102870000D03*
D20*
X81026000Y-102870000D03*
G04 #@! TD*
D19*
G04 #@! TO.C,R12*
X75946000Y-86106000D03*
D20*
X81026000Y-86106000D03*
G04 #@! TD*
D21*
G04 #@! TO.C,R11*
X115776000Y-102616000D03*
D22*
X138176000Y-102616000D03*
G04 #@! TD*
D19*
G04 #@! TO.C,R10*
X129540000Y-94742000D03*
D20*
X134620000Y-94742000D03*
G04 #@! TD*
D19*
G04 #@! TO.C,R9*
X75692000Y-61214000D03*
D20*
X80772000Y-61214000D03*
G04 #@! TD*
D19*
G04 #@! TO.C,R8*
X75692000Y-45974000D03*
D20*
X80772000Y-45974000D03*
G04 #@! TD*
D19*
G04 #@! TO.C,R7*
X121412000Y-89154000D03*
D20*
X121412000Y-84074000D03*
G04 #@! TD*
D19*
G04 #@! TO.C,R6*
X75692000Y-64516000D03*
D20*
X80772000Y-64516000D03*
G04 #@! TD*
D19*
G04 #@! TO.C,R5*
X80772000Y-49022000D03*
D20*
X75692000Y-49022000D03*
G04 #@! TD*
D19*
G04 #@! TO.C,R4*
X75946000Y-74676000D03*
D20*
X81026000Y-74676000D03*
G04 #@! TD*
D19*
G04 #@! TO.C,R3*
X75692000Y-57912000D03*
D20*
X80772000Y-57912000D03*
G04 #@! TD*
D19*
G04 #@! TO.C,R2*
X75946000Y-71628000D03*
D20*
X81026000Y-71628000D03*
G04 #@! TD*
D19*
G04 #@! TO.C,R1*
X75692000Y-54610000D03*
D20*
X80772000Y-54610000D03*
G04 #@! TD*
D23*
G04 #@! TO.C,Q2*
X142418000Y-94488000D03*
X142418000Y-91948000D03*
D24*
X142418000Y-89408000D03*
G04 #@! TD*
D25*
G04 #@! TO.C,Q1*
X122936000Y-96012000D03*
D26*
X122936000Y-93472000D03*
X122936000Y-94742000D03*
G04 #@! TD*
D27*
G04 #@! TO.C,L1*
X94234000Y-71628000D03*
X94234000Y-66028000D03*
G04 #@! TD*
D12*
G04 #@! TO.C,J13*
X77216000Y-39116000D03*
D13*
X79756000Y-39116000D03*
G04 #@! TD*
D12*
G04 #@! TO.C,J12*
X144018000Y-47244000D03*
X144018000Y-49784000D03*
X144018000Y-52324000D03*
X144018000Y-54864000D03*
X144018000Y-57404000D03*
X144018000Y-59944000D03*
X144018000Y-62484000D03*
X144018000Y-65024000D03*
X144018000Y-67564000D03*
X144018000Y-70104000D03*
X144018000Y-72644000D03*
X144018000Y-75184000D03*
D13*
X144018000Y-77724000D03*
G04 #@! TD*
D12*
G04 #@! TO.C,J11*
X67818000Y-39116000D03*
D13*
X70358000Y-39116000D03*
G04 #@! TD*
D28*
G04 #@! TO.C,H4*
X145542000Y-108792944D03*
X143844944Y-108090000D03*
X142147888Y-108792944D03*
X141444944Y-110490000D03*
X142147888Y-112187056D03*
X143844944Y-112890000D03*
X145542000Y-112187056D03*
X146244944Y-110490000D03*
D29*
X143844944Y-110490000D03*
G04 #@! TD*
D28*
G04 #@! TO.C,H3*
X57577056Y-108792944D03*
X55880000Y-108090000D03*
X54182944Y-108792944D03*
X53480000Y-110490000D03*
X54182944Y-112187056D03*
X55880000Y-112890000D03*
X57577056Y-112187056D03*
X58280000Y-110490000D03*
D29*
X55880000Y-110490000D03*
G04 #@! TD*
D28*
G04 #@! TO.C,H2*
X145542000Y-38921943D03*
X143844944Y-38218999D03*
X142147888Y-38921943D03*
X141444944Y-40618999D03*
X142147888Y-42316055D03*
X143844944Y-43018999D03*
X145542000Y-42316055D03*
X146244944Y-40618999D03*
D29*
X143844944Y-40618999D03*
G04 #@! TD*
D28*
G04 #@! TO.C,H1*
X57577056Y-39196944D03*
X55880000Y-38494000D03*
X54182944Y-39196944D03*
X53480000Y-40894000D03*
X54182944Y-42591056D03*
X55880000Y-43294000D03*
X57577056Y-42591056D03*
X58280000Y-40894000D03*
D29*
X55880000Y-40894000D03*
G04 #@! TD*
D30*
G04 #@! TO.C,D4*
X98298000Y-95377000D03*
D31*
X100838000Y-95377000D03*
G04 #@! TD*
D30*
G04 #@! TO.C,D3*
X98298000Y-89535000D03*
D31*
X100838000Y-89535000D03*
G04 #@! TD*
D30*
G04 #@! TO.C,D2*
X98298000Y-83693000D03*
D31*
X100838000Y-83693000D03*
G04 #@! TD*
D32*
G04 #@! TO.C,D1*
X105062000Y-51562000D03*
D31*
X105062000Y-43942000D03*
G04 #@! TD*
D14*
G04 #@! TO.C,C5*
X130676698Y-86614000D03*
D16*
X128176698Y-86614000D03*
G04 #@! TD*
D14*
G04 #@! TO.C,C4*
X112228000Y-72136000D03*
D16*
X109728000Y-72136000D03*
G04 #@! TD*
D14*
G04 #@! TO.C,C3*
X109006000Y-44196000D03*
X111506000Y-44196000D03*
G04 #@! TD*
G04 #@! TO.C,C2*
X111466000Y-48260000D03*
X108966000Y-48260000D03*
G04 #@! TD*
G04 #@! TO.C,C1*
X111466000Y-57658000D03*
D16*
X108966000Y-57658000D03*
G04 #@! TD*
D15*
G04 #@! TO.C,A1*
X121158000Y-40288000D03*
X136398000Y-40288000D03*
X121158000Y-75848000D03*
X136398000Y-42828000D03*
X121158000Y-73308000D03*
X136398000Y-45368000D03*
X121158000Y-70768000D03*
X136398000Y-47908000D03*
X121158000Y-68228000D03*
X136398000Y-50448000D03*
X121158000Y-65688000D03*
X136398000Y-52988000D03*
X121158000Y-63148000D03*
X136398000Y-55528000D03*
X121158000Y-60608000D03*
X136398000Y-58068000D03*
X121158000Y-58068000D03*
X136398000Y-60608000D03*
X121158000Y-55528000D03*
X136398000Y-63148000D03*
X121158000Y-52988000D03*
X136398000Y-65688000D03*
X121158000Y-50448000D03*
X136398000Y-68228000D03*
X121158000Y-47908000D03*
X136398000Y-70768000D03*
X121158000Y-45368000D03*
X136398000Y-73308000D03*
X121158000Y-42828000D03*
D16*
X136398000Y-75848000D03*
G04 #@! TD*
M02*
